<svg width="35" height="35" viewBox="0 0 35 35" fill="none" xmlns="http://www.w3.org/2000/svg">
<path d="M25.0727 7.23342C25.0727 7.248 25.0727 7.248 25.0727 7.26258C24.7081 7.248 24.3435 7.23342 23.9498 7.23342H12.7206L14.281 5.68758C15.7102 4.24383 17.2852 2.91675 19.1081 2.91675C20.9456 2.91675 22.5206 4.24383 23.9498 5.68758L24.7664 6.50425C24.9706 6.69383 25.0727 6.95633 25.0727 7.23342Z" fill="white"/>
<path d="M30.393 19.205C30.9618 19.205 31.4139 18.7384 31.4139 18.155V16.8717C31.4139 11.1405 29.6639 9.40506 23.9472 9.40506H14.7597H11.0556C5.33893 9.40506 3.58893 11.1551 3.58893 16.8717V17.4988C3.58893 18.0821 4.04101 18.5342 4.60976 18.5342C5.83476 18.5342 6.81185 19.5259 6.81185 20.7363C6.81185 21.9467 5.83476 22.9529 4.60976 22.9529C4.04101 22.9529 3.58893 23.405 3.58893 23.9884V24.6154C3.58893 30.3467 5.33893 32.0821 11.0556 32.0821H14.7451H23.9326C29.6493 32.0821 31.3993 30.3321 31.3993 24.6154C31.3993 24.0467 30.9472 23.58 30.3785 23.58C29.1535 23.58 28.1764 22.6029 28.1764 21.3925C28.191 20.1821 29.168 19.205 30.393 19.205ZM15.7805 27.5029C15.7805 28.0717 15.3139 28.5384 14.7451 28.5384C14.1764 28.5384 13.7098 28.0717 13.7098 27.5029V23.5946C13.7098 23.0259 14.1764 22.5592 14.7451 22.5592C15.3139 22.5592 15.7805 23.0259 15.7805 23.5946V27.5029ZM15.7805 17.8925C15.7805 18.4613 15.3139 18.9279 14.7451 18.9279C14.1764 18.9279 13.7098 18.4613 13.7098 17.8925V13.9842C13.7098 13.4155 14.1764 12.9488 14.7451 12.9488C15.3139 12.9488 15.7805 13.4155 15.7805 13.9842V17.8925Z" fill="white"/>
</svg>
